<svg xmlns="http://www.w3.org/2000/svg" viewBox="0 0 97.98 97.98">
  <style>
    .a {
      fill: #333;
    }
    @media (prefers-color-scheme: dark) {
      .a {
        fill: #eee;
      }
    }
  </style>
  <path class="a" d="M36.15 45.16C37.14 46.04 39.23 46.15 40.33 45.71C41.98 45.27 43.52 43.95 43.19 43.07L42.97 42.96C42.75 42.63 41.43 42.74 41.43 43.29C40.55 44.50 39.01 44.83 38.02 43.84C37.03 42.63 34.94 44.17 36.15 45.16ZM60.68 51.10C55.51 53.08 50.45 55.17 45.83 57.81C44.95 54.62 43.63 51.54 41.98 48.68C41.54 47.69 39.45 47.69 38.90 48.46C38.24 49.34 38.35 49.56 39.45 50.77C39.89 51.10 39.89 51.21 40.11 51.54C41.43 53.96 42.53 56.60 43.19 59.24C33.95 64.96 26.58 72.55 23.17 84.32C21.08 92.79 27.68 97.30 35.49 93.23C40 90.92 43.41 86.85 45.39 81.68C47.92 74.42 48.14 66.50 46.16 58.91C48.14 57.70 50.45 56.60 52.87 55.50C55.51 54.29 58.15 53.19 61.45 52.09C62.55 51.54 61.67 50.66 60.68 51.10ZM41.43 84.32C32.96 98.95 16.79 95.32 29.44 74.75C32.52 69.25 37.14 64.52 43.52 60.45C45.50 68.59 44.84 77.39 41.43 84.32ZM78.39 11.39C79.38 9.52 85.65 0.50 86.53 5.89C86.09 17.77 76.74 39.55 63.65 48.46C67.50 34.05 72.89 19.75 78.39 11.39ZM66.84 46.81C76.96 38.56 82.02 26.24 85.87 14.25C90.38-0.05 83.56 1.38 76.41 10.84C68.38 22.28 63.65 35.92 60.24 49.34C59.47 52.64 58.37 57.81 57.49 63.31C57.38 63.42 57.16 63.42 57.05 63.42C44.73 58.36 32.19 70.13 56.28 64.52L57.27 64.85C55.73 75.08 55.07 86.52 58.26 91.58C62.33 95.43 64.97 83.99 65.19 81.35C65.96 75.52 64.75 68.70 59.91 65.07L60.24 63.42C68.05 61 75.09 57.04 79.93 51.65C80.04 51.54 79.71 51.21 79.49 51.43C75.42 56.27 68.05 60.23 60.35 62.54C61.23 58.25 62.22 53.74 63.43 49.34C64.97 48.24 66.62 47.03 66.84 46.81ZM43.52 64.63C43.41 64.52 43.30 64.52 43.19 64.52C46.49 62.43 50.67 62.87 54.41 63.86C54.52 63.86 54.63 63.97 54.74 63.97C50.78 64.74 46.82 64.96 43.52 64.63ZM58.04 83.22C58.04 78.49 58.59 72.66 59.69 66.39C71.35 76.07 58.92 103.02 58.04 83.22Z"/>
</svg>
