<?xml version="1.0" encoding="utf-8"?>
<!-- Generator: Adobe Illustrator 24.2.3, SVG Export Plug-In . SVG Version: 6.00 Build 0)  -->
<svg version="1.1" id="Layer_1" xmlns="http://www.w3.org/2000/svg" xmlns:xlink="http://www.w3.org/1999/xlink" x="0px" y="0px"
	 viewBox="0 0 121.9 121.9" style="enable-background:new 0 0 121.9 121.9;" xml:space="preserve">
<g>
	<path fill="#eee" d="M7.10 55.84C8.36 56.96 11.02 57.10 12.42 56.54C14.52 55.98 16.48 54.30 16.06 53.18L15.78 53.04C15.50 52.62 13.82 52.76 13.82 53.46C12.70 55 10.74 55.42 9.48 54.16C8.22 52.62 5.56 54.58 7.10 55.84ZM38.32 63.40C31.74 65.92 25.30 68.58 19.42 71.94C18.30 67.88 16.62 63.96 14.52 60.32C13.96 59.06 11.30 59.06 10.60 60.04C9.76 61.16 9.90 61.44 11.30 62.98C11.86 63.40 11.86 63.54 12.14 63.96C13.82 67.04 15.22 70.40 16.06 73.76C4.30 81.04-5.08 90.70-9.42 105.68C-12.08 116.46-3.68 122.20 6.26 117.02C12 114.08 16.34 108.90 18.86 102.32C22.08 93.08 22.36 83 19.84 73.34C22.36 71.80 25.30 70.40 28.38 69C31.74 67.46 35.10 66.06 39.30 64.66C40.70 63.96 39.58 62.84 38.32 63.40ZM13.82 105.68C3.04 124.30-17.54 119.68-1.44 93.50C2.48 86.50 8.36 80.48 16.48 75.30C19 85.66 18.16 96.86 13.82 105.68ZM60.86 12.86C62.12 10.48 70.10-1.00 71.22 5.86C70.66 20.98 58.76 48.70 42.10 60.04C47.00 41.70 53.86 23.50 60.86 12.86ZM46.16 57.94C59.04 47.44 65.48 31.76 70.38 16.50C76.12-1.70 67.44 0.12 58.34 12.16C48.12 26.72 42.10 44.08 37.76 61.16C36.78 65.36 35.38 71.94 34.26 78.94C34.12 79.08 33.84 79.08 33.70 79.08C18.02 72.64 2.06 87.62 32.72 80.48L33.98 80.90C32.02 93.92 31.18 108.48 35.24 114.92C40.42 119.82 43.78 105.26 44.06 101.90C45.04 94.48 43.50 85.80 37.34 81.18L37.76 79.08C47.70 76 56.66 70.96 62.82 64.10C62.96 63.96 62.54 63.54 62.26 63.82C57.08 69.98 47.70 75.02 37.90 77.96C39.02 72.50 40.28 66.76 41.82 61.16C43.78 59.76 45.88 58.22 46.16 57.94ZM16.48 80.62C16.34 80.48 16.20 80.48 16.06 80.48C20.26 77.82 25.58 78.38 30.34 79.64C30.48 79.64 30.62 79.78 30.76 79.78C25.72 80.76 20.68 81.04 16.48 80.62ZM34.96 104.28C34.96 98.26 35.66 90.84 37.06 82.86C51.90 95.18 36.08 129.48 34.96 104.28Z"
		/>
</g>
</svg>
